# xmcd
#
# Track frame offsets: 
#        150
#        15263
#        39055
#        62833
#
# Disc length: 1267 seconds
#
# Revision: 3
# Processed by: cddbd v1.5.1PL0 Copyright (c) Steve Scherf et al.
# Submitted via: ExactAudioCopy v0.95b2
#
DISCID=2004f104
DTITLE=Anastacia - Paid My Dues - (Single-CD)
DYEAR=2001
DGENRE=Pop
TTITLE0=Paid My Dues
TTITLE1=Paid My Dues (The S-Man´S Darkstar Mix)
TTITLE2=Paid My Dues (The S-Man´S Darkstar Dub Mix)
TTITLE3=Funk Medley (Live From Amsterdam)
EXTD=YEAR: 2001
EXTT0=
EXTT1=
EXTT2=
EXTT3=
PLAYORDER=
